<?xml version="1.0" encoding="UTF-8"?>
<svg version="1.1" xmlns="http://www.w3.org/2000/svg" width="500" height="500" viewBox="0 0 680 680">

<rect x="90" y="90" width="500" height="500" rx="80" fill="#EA7317"/>

<g transform="translate(340,340) scale(5.2) translate(-47,-38)">

  <path d="M0 0 C4.8613606 3.68505707 8.63732808 7.95922125 10.4375 13.875 C10.70181203 16.95726817 10.67039521 20.02169104 10.6328125 23.11328125 C10.6299826 23.99404831 10.62715271 24.87481537 10.62423706 25.78227234 C10.61307833 28.58415545 10.58798171 31.38571416 10.5625 34.1875 C10.55246463 36.09179225 10.54333975 37.99608952 10.53515625 39.90039062 C10.51485809 44.55881806 10.47570143 49.21654762 10.4375 53.875 C3.8375 53.875 -2.7625 53.875 -9.5625 53.875 C-9.58828125 51.39484375 -9.6140625 48.9146875 -9.640625 46.359375 C-9.67905529 43.95317307 -9.72421209 41.54718473 -9.77001953 39.14111328 C-9.79821718 37.47096989 -9.81943779 35.80069335 -9.83349609 34.13037109 C-9.85494337 31.72684628 -9.90159845 29.32492017 -9.953125 26.921875 C-9.95435364 26.17693787 -9.95558228 25.43200073 -9.95684814 24.66448975 C-10.05390744 21.21685237 -10.31135241 19.2156602 -12.38183594 16.40722656 C-15.60913554 14.13958972 -17.721347 14.25767184 -21.5625 14.875 C-24.59853345 17.71490814 -25.49545623 19.42197483 -26.10839844 23.5637207 C-26.14932151 24.97563977 -26.16945759 26.38827132 -26.171875 27.80078125 C-26.18841125 28.54837204 -26.20494751 29.29596283 -26.22198486 30.06620789 C-26.27033923 32.44005652 -26.29180636 34.81326522 -26.3125 37.1875 C-26.34067043 38.80276635 -26.37059937 40.41800306 -26.40234375 42.03320312 C-26.47938902 45.98075941 -26.52001821 49.92631717 -26.5625 53.875 C-33.1625 53.875 -39.7625 53.875 -46.5625 53.875 C-46.5625 35.725 -46.5625 17.575 -46.5625 -1.125 C-41.6125 -1.125 -36.6625 -1.125 -31.5625 -1.125 C-31.2325 0.525 -30.9025 2.175 -30.5625 3.875 C-30.03140625 3.52566406 -29.5003125 3.17632812 -28.953125 2.81640625 C-28.24671875 2.36136719 -27.5403125 1.90632813 -26.8125 1.4375 C-26.11640625 0.98503906 -25.4203125 0.53257813 -24.703125 0.06640625 C-17.8357111 -3.75578579 -6.74533096 -4.02398329 0 0 Z" fill="#FFFFFF" transform="translate(47,12)"/>

  <path d="M0 0 C6.93 0 13.86 0 21 0 C24.66059603 8.57625355 27.93971252 17.19679005 31 26 C32.83924204 23.24113694 33.81462726 21.02578385 34.91015625 17.9296875 C35.26013672 16.95128906 35.61011719 15.97289062 35.97070312 14.96484375 C36.33099609 13.94519531 36.69128906 12.92554688 37.0625 11.875 C37.78003304 9.85066785 38.49995563 7.82718055 39.22265625 5.8046875 C39.53984619 4.90733887 39.85703613 4.00999023 40.18383789 3.08544922 C41 1 41 1 42 0 C44.69654854 -0.07319621 47.36691458 -0.09242537 50.0625 -0.0625 C50.82111328 -0.05798828 51.57972656 -0.05347656 52.36132812 -0.04882812 C54.24091871 -0.0370068 56.12046899 -0.01907078 58 0 C58.2673999 0.74685059 58.5347998 1.49370117 58.81030273 2.26318359 C60.0180808 5.63425204 61.22776589 9.00463303 62.4375 12.375 C62.85837891 13.550625 63.27925781 14.72625 63.71289062 15.9375 C64.11572266 17.05898438 64.51855469 18.18046875 64.93359375 19.3359375 C65.4913147 20.89127197 65.4913147 20.89127197 66.06030273 22.47802734 C66.92952058 24.94802049 66.92952058 24.94802049 68 27 C68.2673999 26.25314941 68.5347998 25.50629883 68.81030273 24.73681641 C70.0180808 21.36574796 71.22776589 17.99536697 72.4375 14.625 C72.85837891 13.449375 73.27925781 12.27375 73.71289062 11.0625 C74.11572266 9.94101562 74.51855469 8.81953125 74.93359375 7.6640625 C75.30540771 6.62717285 75.67722168 5.5902832 76.06030273 4.52197266 C77 2 77 2 78 0 C84.93 0 91.86 0 99 0 C95.625 11.25 95.625 11.25 94.09887695 15.26611328 C93.75875076 16.16629181 93.41862457 17.06647034 93.06819153 17.993927 C92.53363594 19.39298782 92.53363594 19.39298782 91.98828125 20.8203125 C91.61519333 21.80498505 91.24210541 22.78965759 90.85771179 23.8041687 C89.67919847 26.91234758 88.49593566 30.01869242 87.3125 33.125 C86.50684522 35.24727581 85.7015037 37.36967057 84.89648438 39.4921875 C82.9346061 44.66283963 80.96846969 49.83185383 79 55 C72.73 55 66.46 55 60 55 C56.7 46.09 53.4 37.18 50 28 C45.90669983 37.7886857 45.90669983 37.7886857 42.25 47.6875 C40.10684474 53.89315526 40.10684474 53.89315526 39 55 C37.65732587 55.08631874 36.31025678 55.10706473 34.96484375 55.09765625 C34.15595703 55.09443359 33.34707031 55.09121094 32.51367188 55.08789062 C31.66353516 55.07951172 30.81339844 55.07113281 29.9375 55.0625 C29.08349609 55.05798828 28.22949219 55.05347656 27.34960938 55.04882812 C25.23304337 55.03700373 23.11651315 55.01906769 21 55 C16.19768381 45.24323821 12.54715253 35.04322648 8.78686523 24.85351562 C7.67679436 21.84599515 6.56055254 18.8408187 5.44335938 15.8359375 C4.73662372 13.92981925 4.03023065 12.02357394 3.32421875 10.1171875 C2.82277596 8.76583206 2.82277596 8.76583206 2.311203 7.38717651 C2.00700943 6.56186432 1.70281586 5.73655212 1.3894043 4.88623047 C1.12024704 4.15773895 0.85108978 3.42924744 0.57377625 2.67868042 C0 1 0 1 0 0 Z" fill="#FFFFFF" transform="translate(-5,10)"/>

</g>
</svg>
